{"title":"Snub 2010 DVDRip XviD AC3-LEGi0N","uid":5743975,"size":1499290856,"categoryP":"video","categoryS":"movies","magnet":"?xt=urn:btih:22d3536ee29629ff15b69c13c9744824def459d2&amp;dn=Snub+2010+DVDRip+XviD+AC3-LEGi0N&amp;tr=udp%3A%2F%2Ftracker.openbittorrent.com%3A80&amp;tr=udp%3A%2F%2Fopen.demonii.com%3A1337&amp;tr=udp%3A%2F%2Ftracker.coppersurfer.tk%3A6969&amp;tr=udp%3A%2F%2Fexodus.desync.com%3A6969","seeders":0,"leechers":1,"uploader":"TvTeam","files":5,"time":1281131601,"description":". \n  &lt;a href=&quot;\nhttp://www.torrentday.com/&quot; rel=&quot;nofollow&quot; target=&quot;_NEW&quot;&gt;\nhttp://www.torrentday.com/&lt;/a&gt;        :     The Hottest Private Tracker On The Net!!!\n\n\n               www . TorrentDay . Com \n(((((((((((((= Enjoy No RAR releases =))))))))))))))))))))\n\n\n...................................NFO:....................................\n\n\n[b]Snub 2010 DVDRip XviD AC3-LEGi0N[/center]             \n\n[img]http://leetleech.org/images/48874973695367351744.png[/img][b]\n[color=red]General[/color]\nFormat:AVI \nFile Size: 1.37 GiB\nDuration: 1h 14mn\nOverall bit rate: 2 631 Kbps\nIMDB Rating: 4.3/10   386  votes\nGenre: Action: Drama            \nIMDb Link: http://www.imdb.com/title/tt1182942/\nSource: PAL DVDR-FEATURE \n\n[color=red]Video[/color]\nFormat: MPEG-4 Visual\nFormat profile: Advanced Simple@L5\nFormat settings, BVOP: Yes\nFormat settings, QPel: NoFile Size\nFormat settings, GMC:  No warpoints\nFormat settings, Matrix: Default (H.263)\nMuxing mode: Packed bitstream\nCodec ID: XVID\nBit rate: 2 173Kbps\nWidth: 720 pixels\nHeight: 400 pixels\nDAR: 16:9\nFrame rate 25.000 fps\nResolution: 8 bits\nColorimetry: 4:2:0\nScan Type: Progressive\nBits/(Pixel*Frame): 0.302\nStream size: 1 13 GiB (83%)\n\n[color=red]Audio[/color]\nFormat: AC-3\nBit rate mode: Constant\nBit rate: 448 Kbps\nChannel(s): 6 channels\nSampling rate: 48.0 KHz\nStream size: 239 MiB (17%) \n\n[img]http://leetleech.org/images/89524873606771859129.png[/img]\n A junior minister in the British Goverment discovers a terrorist\nplot to detonate a nuclear device in London.                    \n                                   \n[color=red]Tagline:[/color]\nN/A                 \n\n[img]http://leetleech.org/images/84434050717770922575.png[/img]\nGary Mavers    ... Flight Lieutenant Sweeney\nJohnathan Moore .. Norman Chase MP\nHarriet Thorpe ... Elaine          \nClaire Spence  ... Marcia Grain\nBen Rowe       ... Jake   \nAlice Henley   ... Tanya   \nZoe Robinson   ... Private Gill \n\n[color=red]GREETZ[/color]\nNoir | xXTHORNXx | bigimac | LUSi |\n\nkempas | KaN1vE | mike160 | skillz |\n\nLungbuster | Sheikh | DiLLoN1369  |\n\n0B5C3N3 | FLAWL3SS | AND ALL P2P![/b]\n\n[img]http://leetleech.org/images/95521316153253938506.png[/img]\n\n\n[center][img]http://leetleech.org/images/12755021538703799215.png[/img][/center]\n[center][img]http://leetleech.org/images/12755021538703799215.png[/img][/center]","torrent":{"xt":"urn:btih:22d3536ee29629ff15b69c13c9744824def459d2","amp;dn":"Snub+2010+DVDRip+XviD+AC3-LEGi0N","amp;tr":["udp%3A%2F%2Ftracker.openbittorrent.com%3A80","udp%3A%2F%2Fopen.demonii.com%3A1337","udp%3A%2F%2Ftracker.coppersurfer.tk%3A6969","udp%3A%2F%2Fexodus.desync.com%3A6969"],"infoHash":"22d3536ee29629ff15b69c13c9744824def459d2","infoHashBuffer":{"type":"Buffer","data":[34,211,83,110,226,150,41,255,21,182,156,19,201,116,72,36,222,244,89,210]},"announce":[],"urlList":[]}}